<?xml version="1.0" encoding="UTF-8" standalone="no"?>
<svg width="500" height="133" viewBox="0 0 500 133" fill="none" xmlns="http://www.w3.org/2000/svg">
<rect width="500" height="133" fill="white"/>
<rect width="133" height="133" fill="#205EFC"/>
<g clip-path="url(#clip0_1011_106)">
<mask id="mask0_1011_106" style="mask-type:luminance" maskUnits="userSpaceOnUse" x="17" y="17" width="99" height="99">
<path d="M115.788 17.2119H17.2119V115.788H115.788V17.2119Z" fill="white"/>
</mask>
<g mask="url(#mask0_1011_106)">
<path d="M102.083 25.7784C100.213 25.7714 98.3827 26.3109 96.8159 27.3307C95.2491 28.3504 94.0146 29.8058 93.2641 31.518C92.5136 33.2301 92.2799 35.1242 92.5917 36.9674C92.9035 38.8106 93.7472 40.5225 95.0191 41.8925L79.0251 56.294C76.2743 54.0103 72.8163 52.7518 69.2411 52.7333C65.6659 52.7147 62.195 53.9372 59.4207 56.1923L46.5719 43.3249C47.3617 42.0438 47.7828 40.5696 47.7886 39.0646C47.7893 37.4266 47.3041 35.8253 46.3945 34.4631C45.4849 33.1009 44.1916 32.0391 42.6785 31.412C41.1653 30.7849 39.5001 30.6207 37.8935 30.9401C36.287 31.2595 34.8114 32.0482 33.6531 33.2064C32.4949 34.3646 31.7062 35.8404 31.3868 37.4469C31.0673 39.0534 31.2316 40.7185 31.8587 42.2317C32.4858 43.7449 33.5476 45.0381 34.9098 45.9477C36.272 46.8574 37.8734 47.3426 39.5114 47.342C41.3214 47.3356 43.0783 46.73 44.5079 45.6199L57.1996 58.3332C54.7469 61.1621 53.3895 64.7765 53.3737 68.5205C53.3737 68.8748 53.4538 69.2044 53.4784 69.5525L36.3353 71.7736C35.5135 70.0202 34.0731 68.6322 32.2905 67.8759C30.5079 67.1196 28.5088 67.0484 26.677 67.6759C24.8451 68.3034 23.3095 69.5854 22.365 71.2758C21.4205 72.9662 21.1337 74.9459 21.5595 76.8349C21.9854 78.7238 23.0939 80.389 24.6724 81.5106C26.2508 82.6323 28.188 83.1313 30.1119 82.9121C32.0358 82.6929 33.8109 81.7708 35.0966 80.3228C36.3822 78.8748 37.0878 77.003 37.0777 75.0666C37.0777 74.9711 37.0531 74.8849 37.05 74.7894L53.9743 72.596C54.5882 74.8793 55.7108 76.994 57.2582 78.7817L45.7586 91.1038C44.4532 90.3274 42.9647 89.9127 41.4459 89.9023C39.7318 89.9017 38.0559 90.4095 36.6304 91.3614C35.2049 92.3134 34.0937 93.6667 33.4375 95.2503C32.7812 96.8338 32.6094 98.5765 32.9436 100.258C33.2779 101.939 34.1033 103.483 35.3154 104.695C36.5275 105.907 38.0717 106.733 39.753 107.067C41.4342 107.401 43.1769 107.229 44.7604 106.573C46.3439 105.917 47.6973 104.806 48.6492 103.38C49.6012 101.955 50.1089 100.279 50.1082 98.5648C50.0996 96.5687 49.3948 94.6381 48.1152 93.1061L59.5131 80.9196C61.8897 82.8365 64.7846 84.0001 67.8268 84.2614C70.8689 84.5226 73.9197 83.8696 76.5884 82.3859L85.7437 91.4242C84.195 93.1467 83.3497 95.3879 83.375 97.7041C83.4004 100.02 84.2946 102.243 85.8806 103.931C87.4666 105.619 89.6288 106.65 91.939 106.82C94.2491 106.989 96.5387 106.285 98.3544 104.847C100.17 103.409 101.379 101.341 101.743 99.0534C102.107 96.7658 101.598 94.4251 100.317 92.4947C99.0371 90.5644 97.0786 89.1853 94.8297 88.6305C92.5808 88.0756 90.2055 88.3855 88.1742 89.4988L79.1945 80.6331C80.8101 79.3303 82.148 77.7166 83.1288 75.8875C84.1097 74.0585 84.7137 72.0512 84.905 69.9845C85.0963 67.9179 84.871 65.834 84.2426 63.856C83.6141 61.8779 82.5951 60.046 81.2461 58.4688L97.5143 43.824C98.9153 44.6168 100.495 45.0407 102.104 45.0562C104.657 45.0562 107.106 44.042 108.911 42.2367C110.717 40.4314 111.731 37.9828 111.731 35.4296C111.731 32.8765 110.717 30.4279 108.911 28.6226C107.106 26.8172 104.657 25.803 102.104 25.803L102.083 25.7784ZM29.1823 79.8814C28.23 79.8814 27.2992 79.5991 26.5074 79.07C25.7156 78.541 25.0985 77.7889 24.7341 76.9091C24.3696 76.0293 24.2742 75.0613 24.46 74.1273C24.6458 73.1933 25.1044 72.3353 25.7777 71.662C26.4511 70.9886 27.3091 70.5301 28.2431 70.3443C29.1771 70.1585 30.1451 70.2538 31.0249 70.6183C31.9047 70.9827 32.6567 71.5999 33.1857 72.3917C33.7148 73.1835 33.9972 74.1143 33.9972 75.0666C33.9964 76.3433 33.4888 77.5676 32.586 78.4703C31.6833 79.3731 30.459 79.8806 29.1823 79.8814ZM98.4262 97.4004C98.4268 98.5812 98.0771 99.7358 97.4215 100.718C96.7659 101.7 95.8337 102.466 94.7429 102.918C93.6521 103.371 92.4516 103.489 91.2933 103.259C90.135 103.029 89.071 102.461 88.2357 101.626C87.4005 100.791 86.8316 99.7274 86.601 98.5693C86.3704 97.4111 86.4885 96.2106 86.9403 95.1195C87.392 94.0284 88.1572 93.0959 89.1391 92.4397C90.1209 91.7836 91.2752 91.4334 92.4561 91.4334C94.0384 91.435 95.5556 92.0641 96.6747 93.1827C97.7939 94.3013 98.4238 95.818 98.4262 97.4004ZM39.5114 44.2615C38.4827 44.2621 37.4768 43.9576 36.6212 43.3864C35.7656 42.8153 35.0987 42.0032 34.7047 41.0529C34.3108 40.1026 34.2076 39.0569 34.4081 38.0479C34.6087 37.0389 35.1039 36.1121 35.8313 35.3847C36.5588 34.6573 37.4856 34.1619 38.4946 33.9614C39.5035 33.7608 40.5493 33.8641 41.4996 34.2581C42.4499 34.652 43.262 35.319 43.8331 36.1746C44.4042 37.0302 44.7087 38.0359 44.7081 39.0646C44.7065 40.4424 44.1585 41.7633 43.1842 42.7376C42.21 43.7118 40.8891 44.2598 39.5114 44.2615ZM41.4367 104.14C40.332 104.141 39.2518 103.814 38.333 103.201C37.4141 102.587 36.6978 101.715 36.2746 100.695C35.8514 99.6745 35.7404 98.5514 35.9555 97.4679C36.1707 96.3843 36.7023 95.3888 37.4833 94.6074C38.2642 93.826 39.2594 93.2938 40.3429 93.0781C41.4263 92.8623 42.5494 92.9727 43.5701 93.3953C44.5908 93.818 45.4633 94.5339 46.0771 95.4524C46.6909 96.3709 47.0185 97.4508 47.0185 98.5555C47.0169 100.036 46.4284 101.455 45.382 102.502C44.3356 103.549 42.9169 104.138 41.4367 104.14ZM59.5347 68.5205C59.5347 66.6166 60.0993 64.7553 61.157 63.1722C62.2148 61.5891 63.7183 60.3553 65.4774 59.6267C67.2364 58.8981 69.172 58.7074 71.0394 59.0788C72.9067 59.4503 74.622 60.3672 75.9683 61.7135C77.3146 63.0598 78.2315 64.7751 78.6029 66.6425C78.9744 68.5099 78.7837 70.4455 78.0551 72.2045C77.3265 73.9635 76.0926 75.4669 74.5095 76.5247C72.9265 77.5825 71.0653 78.1471 69.1613 78.1471C66.6092 78.1439 64.1625 77.1286 62.3578 75.3239C60.5532 73.5193 59.538 71.0727 59.5347 68.5205ZM102.083 41.9511C100.788 41.9511 99.5224 41.5672 98.4459 40.8479C97.3694 40.1286 96.5304 39.1062 96.035 37.9101C95.5395 36.7139 95.4098 35.3977 95.6624 34.1279C95.915 32.8581 96.5385 31.6917 97.454 30.7762C98.3694 29.8607 99.5359 29.2373 100.806 28.9847C102.076 28.7321 103.392 28.8617 104.588 29.3572C105.784 29.8526 106.806 30.6916 107.526 31.7681C108.245 32.8446 108.629 34.1103 108.629 35.405C108.627 37.1406 107.937 38.8047 106.71 40.032C105.482 41.2592 103.818 41.9495 102.083 41.9511Z" fill="white"/>
</g>
</g>
<path d="M216.094 72H207.438L194 59.1875H174.375V52.875H200.094C201.427 52.875 202.677 52.625 203.844 52.125C205.01 51.6042 206.021 50.9062 206.875 50.0312C207.75 49.1562 208.438 48.1354 208.938 46.9688C209.438 45.7812 209.688 44.5208 209.688 43.1875C209.688 41.8542 209.438 40.6042 208.938 39.4375C208.438 38.2708 207.75 37.2604 206.875 36.4062C206.021 35.5312 205.01 34.8438 203.844 34.3438C202.677 33.8438 201.427 33.5938 200.094 33.5938H170.781V72H164.375V27.1875H200.094C202.302 27.1875 204.375 27.6146 206.312 28.4688C208.25 29.3021 209.938 30.4479 211.375 31.9062C212.833 33.3438 213.979 35.0312 214.812 36.9688C215.667 38.9062 216.094 40.9792 216.094 43.1875C216.094 45.1875 215.75 47.0833 215.062 48.875C214.375 50.6458 213.427 52.2396 212.219 53.6562C211.01 55.0521 209.583 56.2188 207.938 57.1562C206.312 58.0729 204.552 58.6875 202.656 59L216.094 72ZM272.312 27.1875L272.25 49.5938C272.25 51.6771 271.979 53.6771 271.438 55.5938C270.917 57.4896 270.167 59.2708 269.188 60.9375C268.229 62.5833 267.062 64.0938 265.688 65.4688C264.333 66.8229 262.823 67.9896 261.156 68.9688C259.51 69.9271 257.74 70.6771 255.844 71.2188C253.948 71.7396 251.969 72 249.906 72H245.188C243.125 72 241.135 71.7396 239.219 71.2188C237.323 70.6771 235.542 69.9167 233.875 68.9375C232.229 67.9583 230.729 66.7917 229.375 65.4375C228.021 64.0625 226.854 62.5521 225.875 60.9062C224.917 59.2396 224.167 57.4583 223.625 55.5625C223.104 53.6458 222.844 51.6562 222.844 49.5938V27.1875H229.25V49.5938C229.25 51.8021 229.667 53.8854 230.5 55.8438C231.333 57.7812 232.469 59.4792 233.906 60.9375C235.365 62.375 237.062 63.5104 239 64.3438C240.938 65.1771 243 65.5938 245.188 65.5938H249.906C252.115 65.5938 254.188 65.1771 256.125 64.3438C258.062 63.5104 259.75 62.375 261.188 60.9375C262.625 59.4792 263.76 57.7812 264.594 55.8438C265.427 53.8854 265.844 51.8021 265.844 49.5938V27.1875H272.25H272.312ZM287.969 72H281.562V27.1875H287.969V72Z" fill="#21242C"/>
<path d="M179.262 104H175.992L172.242 100.426H167.379V98.0469H174.023C174.359 98.0469 174.676 97.9805 174.973 97.8477C175.27 97.7148 175.527 97.5391 175.746 97.3203C175.965 97.0938 176.137 96.832 176.262 96.5352C176.387 96.2383 176.449 95.9258 176.449 95.5977C176.449 95.2617 176.387 94.9492 176.262 94.6602C176.137 94.3633 175.965 94.1055 175.746 93.8867C175.527 93.668 175.27 93.4961 174.973 93.3711C174.676 93.2383 174.359 93.1719 174.023 93.1719H166.125V104H163.723V90.8047H174.023C174.688 90.8047 175.312 90.9336 175.898 91.1914C176.484 91.4414 176.992 91.7852 177.422 92.2227C177.859 92.6523 178.203 93.1602 178.453 93.7461C178.703 94.3242 178.828 94.9414 178.828 95.5977C178.828 96.1367 178.742 96.6562 178.57 97.1562C178.398 97.6484 178.156 98.1016 177.844 98.5156C177.539 98.9219 177.176 99.2734 176.754 99.5703C176.332 99.8672 175.871 100.086 175.371 100.227L179.262 104ZM271.852 90.8047V97.4023C271.852 98.3164 271.68 99.1758 271.336 99.9805C270.992 100.777 270.52 101.477 269.918 102.078C269.324 102.672 268.629 103.141 267.832 103.484C267.035 103.828 266.184 104 265.277 104H263.953C263.047 104 262.195 103.828 261.398 103.484C260.602 103.133 259.902 102.66 259.301 102.066C258.707 101.465 258.238 100.766 257.895 99.9688C257.551 99.1641 257.379 98.3086 257.379 97.4023V90.8047H259.781V97.4023C259.781 97.9805 259.891 98.5273 260.109 99.043C260.328 99.5508 260.625 99.9961 261 100.379C261.383 100.754 261.824 101.051 262.324 101.27C262.832 101.488 263.375 101.598 263.953 101.598H265.277C265.855 101.598 266.398 101.488 266.906 101.27C267.414 101.051 267.855 100.754 268.23 100.379C268.605 99.9961 268.902 99.5508 269.121 99.043C269.34 98.5273 269.449 97.9805 269.449 97.4023V90.8047H271.852ZM337.852 104H335.473V90.8047H337.852V104Z" fill="#205EFC"/>
<path d="M195.457 104H181.676V90.7578H195.457V93.1719H184.102V101.574H195.457V104ZM193.922 98.5273H185.238V96.1016H193.922V98.5273ZM213.234 104H210.832V100.379H201.586V97.9297H210.832V93.1719H204.586C204 93.1719 203.449 93.2852 202.934 93.5117C202.418 93.7305 201.969 94.0312 201.586 94.4141C201.203 94.7969 200.898 95.2461 200.672 95.7617C200.453 96.2695 200.344 96.8164 200.344 97.4023V104H197.918V97.4023C197.918 96.4805 198.094 95.6172 198.445 94.8125C198.797 94.0078 199.273 93.3047 199.875 92.7031C200.477 92.1016 201.184 91.6289 201.996 91.2852C202.809 90.9336 203.672 90.7578 204.586 90.7578H213.234V104ZM230.59 104H222.07C221.141 104 220.297 103.828 219.539 103.484C218.781 103.141 218.133 102.672 217.594 102.078C217.055 101.477 216.637 100.773 216.34 99.9688C216.051 99.1562 215.906 98.2852 215.906 97.3555C215.906 96.4336 216.051 95.5742 216.34 94.7773C216.637 93.9727 217.055 93.2734 217.594 92.6797C218.133 92.0859 218.781 91.6172 219.539 91.2734C220.297 90.9297 221.141 90.7578 222.07 90.7578H230.59V93.1719H222.07C221.492 93.1719 220.969 93.2812 220.5 93.5C220.039 93.7188 219.648 94.0156 219.328 94.3906C219.008 94.7656 218.762 95.207 218.59 95.7148C218.418 96.2227 218.332 96.7695 218.332 97.3555C218.332 97.9492 218.418 98.5039 218.59 99.0195C218.762 99.5273 219.008 99.9727 219.328 100.355C219.648 100.73 220.039 101.027 220.5 101.246C220.969 101.465 221.492 101.574 222.07 101.574H230.59V104ZM240.562 104H238.16V93.1719H231.809V90.8047H246.902V93.1719H240.562V104ZM289.57 100.109C289.57 100.648 289.469 101.156 289.266 101.633C289.062 102.102 288.785 102.512 288.434 102.863C288.09 103.215 287.68 103.492 287.203 103.695C286.734 103.898 286.23 104 285.691 104H274.477V101.598H285.691C285.902 101.598 286.098 101.562 286.277 101.492C286.465 101.414 286.625 101.309 286.758 101.176C286.898 101.035 287.008 100.875 287.086 100.695C287.164 100.516 287.203 100.32 287.203 100.109C287.203 99.8984 287.164 99.7031 287.086 99.5234C287.008 99.3359 286.898 99.1758 286.758 99.043C286.625 98.9023 286.465 98.793 286.277 98.7148C286.098 98.6367 285.902 98.5977 285.691 98.5977H278.344C277.812 98.5977 277.312 98.4961 276.844 98.293C276.375 98.0898 275.965 97.8125 275.613 97.4609C275.262 97.1016 274.984 96.6836 274.781 96.207C274.578 95.7305 274.477 95.2227 274.477 94.6836C274.477 94.1602 274.578 93.6641 274.781 93.1953C274.984 92.7188 275.262 92.3047 275.613 91.9531C275.965 91.6016 276.375 91.3242 276.844 91.1211C277.312 90.9102 277.812 90.8047 278.344 90.8047H288.691V93.1719H278.344C278.141 93.1719 277.945 93.2148 277.758 93.3008C277.578 93.3789 277.422 93.4883 277.289 93.6289C277.156 93.7617 277.051 93.9219 276.973 94.1094C276.895 94.2891 276.855 94.4805 276.855 94.6836C276.855 94.8945 276.895 95.0938 276.973 95.2812C277.051 95.4609 277.156 95.6211 277.289 95.7617C277.422 95.8945 277.578 96 277.758 96.0781C277.945 96.1562 278.141 96.1953 278.344 96.1953H285.691C286.23 96.1953 286.734 96.3008 287.203 96.5117C287.68 96.7148 288.09 96.9961 288.434 97.3555C288.785 97.707 289.062 98.1211 289.266 98.5977C289.469 99.0742 289.57 99.5781 289.57 100.109ZM305.848 104H292.066V90.7578H305.848V93.1719H294.492V101.574H305.848V104ZM304.312 98.5273H295.629V96.1016H304.312V98.5273ZM324.059 104H320.789L317.039 100.426H312.176V98.0469H318.82C319.156 98.0469 319.473 97.9805 319.77 97.8477C320.066 97.7148 320.324 97.5391 320.543 97.3203C320.762 97.0938 320.934 96.832 321.059 96.5352C321.184 96.2383 321.246 95.9258 321.246 95.5977C321.246 95.2617 321.184 94.9492 321.059 94.6602C320.934 94.3633 320.762 94.1055 320.543 93.8867C320.324 93.668 320.066 93.4961 319.77 93.3711C319.473 93.2383 319.156 93.1719 318.82 93.1719H310.922V104H308.52V90.8047H318.82C319.484 90.8047 320.109 90.9336 320.695 91.1914C321.281 91.4414 321.789 91.7852 322.219 92.2227C322.656 92.6523 323 93.1602 323.25 93.7461C323.5 94.3242 323.625 94.9414 323.625 95.5977C323.625 96.1367 323.539 96.6562 323.367 97.1562C323.195 97.6484 322.953 98.1016 322.641 98.5156C322.336 98.9219 321.973 99.2734 321.551 99.5703C321.129 99.8672 320.668 100.086 320.168 100.227L324.059 104ZM353.438 104C353.438 103.125 353.289 102.277 352.992 101.457C352.703 100.629 352.309 99.8516 351.809 99.125C351.316 98.3906 350.742 97.707 350.086 97.0742C349.438 96.4414 348.754 95.8789 348.035 95.3867C347.316 94.8867 346.582 94.4688 345.832 94.1328C345.09 93.7891 344.383 93.5352 343.711 93.3711V104H341.309V90.8047H342.609V90.8281C343.469 90.875 344.383 91.0664 345.352 91.4023C346.328 91.7305 347.297 92.1797 348.258 92.75C349.227 93.3125 350.156 93.9844 351.047 94.7656C351.945 95.5391 352.742 96.3945 353.438 97.332V90.8047H355.828V104H353.438ZM366.586 104H364.184V93.1719H357.832V90.8047H372.926V93.1719H366.586V104ZM388.699 104H374.918V90.7578H388.699V93.1719H377.344V101.574H388.699V104ZM387.164 98.5273H378.48V96.1016H387.164V98.5273ZM406.91 104H403.641L399.891 100.426H395.027V98.0469H401.672C402.008 98.0469 402.324 97.9805 402.621 97.8477C402.918 97.7148 403.176 97.5391 403.395 97.3203C403.613 97.0938 403.785 96.832 403.91 96.5352C404.035 96.2383 404.098 95.9258 404.098 95.5977C404.098 95.2617 404.035 94.9492 403.91 94.6602C403.785 94.3633 403.613 94.1055 403.395 93.8867C403.176 93.668 402.918 93.4961 402.621 93.3711C402.324 93.2383 402.008 93.1719 401.672 93.1719H393.773V104H391.371V90.8047H401.672C402.336 90.8047 402.961 90.9336 403.547 91.1914C404.133 91.4414 404.641 91.7852 405.07 92.2227C405.508 92.6523 405.852 93.1602 406.102 93.7461C406.352 94.3242 406.477 94.9414 406.477 95.5977C406.477 96.1367 406.391 96.6562 406.219 97.1562C406.047 97.6484 405.805 98.1016 405.492 98.5156C405.188 98.9219 404.824 99.2734 404.402 99.5703C403.98 99.8672 403.52 100.086 403.02 100.227L406.91 104ZM423.129 93.1719H411.75V104H409.324V90.7578H423.129V93.1719ZM421.57 98.5273H412.887V96.1016H421.57V98.5273ZM440.297 104H437.895V100.379H428.648V97.9297H437.895V93.1719H431.648C431.062 93.1719 430.512 93.2852 429.996 93.5117C429.48 93.7305 429.031 94.0312 428.648 94.4141C428.266 94.7969 427.961 95.2461 427.734 95.7617C427.516 96.2695 427.406 96.8164 427.406 97.4023V104H424.98V97.4023C424.98 96.4805 425.156 95.6172 425.508 94.8125C425.859 94.0078 426.336 93.3047 426.938 92.7031C427.539 92.1016 428.246 91.6289 429.059 91.2852C429.871 90.9336 430.734 90.7578 431.648 90.7578H440.297V104ZM457.652 104H449.133C448.203 104 447.359 103.828 446.602 103.484C445.844 103.141 445.195 102.672 444.656 102.078C444.117 101.477 443.699 100.773 443.402 99.9688C443.113 99.1562 442.969 98.2852 442.969 97.3555C442.969 96.4336 443.113 95.5742 443.402 94.7773C443.699 93.9727 444.117 93.2734 444.656 92.6797C445.195 92.0859 445.844 91.6172 446.602 91.2734C447.359 90.9297 448.203 90.7578 449.133 90.7578H457.652V93.1719H449.133C448.555 93.1719 448.031 93.2812 447.562 93.5C447.102 93.7188 446.711 94.0156 446.391 94.3906C446.07 94.7656 445.824 95.207 445.652 95.7148C445.48 96.2227 445.395 96.7695 445.395 97.3555C445.395 97.9492 445.48 98.5039 445.652 99.0195C445.824 99.5273 446.07 99.9727 446.391 100.355C446.711 100.73 447.102 101.027 447.562 101.246C448.031 101.465 448.555 101.574 449.133 101.574H457.652V104ZM474.105 104H460.324V90.7578H474.105V93.1719H462.75V101.574H474.105V104ZM472.57 98.5273H463.887V96.1016H472.57V98.5273Z" fill="#21242C"/>
<defs>
<clipPath id="clip0_1011_106">
<rect width="98.5765" height="98.5765" fill="white" transform="translate(17.2119 17.2119)"/>
</clipPath>
</defs>
</svg>


