<?xml version="1.0" encoding="UTF-8" standalone="no"?>
<svg width="500" height="133" viewBox="0 0 500 133" fill="none" xmlns="http://www.w3.org/2000/svg">
<rect width="500" height="133" fill="#21242A"/>
<rect width="133" height="133" fill="#205EFC"/>
<g clip-path="url(#clip0_1011_105)">
<mask id="mask0_1011_105" style="mask-type:luminance" maskUnits="userSpaceOnUse" x="17" y="17" width="99" height="99">
<path d="M115.788 17.2119H17.2119V115.788H115.788V17.2119Z" fill="white"/>
</mask>
<g mask="url(#mask0_1011_105)">
<path d="M102.083 25.7784C100.213 25.7714 98.3827 26.3109 96.8159 27.3307C95.2491 28.3504 94.0146 29.8058 93.2641 31.518C92.5136 33.2301 92.2799 35.1242 92.5917 36.9674C92.9035 38.8106 93.7472 40.5225 95.0191 41.8925L79.0251 56.294C76.2743 54.0103 72.8163 52.7518 69.2411 52.7333C65.6659 52.7147 62.195 53.9372 59.4207 56.1923L46.5719 43.3249C47.3617 42.0438 47.7828 40.5696 47.7886 39.0646C47.7893 37.4266 47.3041 35.8253 46.3945 34.4631C45.4849 33.1009 44.1916 32.0391 42.6785 31.412C41.1653 30.7849 39.5001 30.6207 37.8935 30.9401C36.287 31.2595 34.8114 32.0482 33.6531 33.2064C32.4949 34.3646 31.7062 35.8404 31.3868 37.4469C31.0673 39.0534 31.2316 40.7185 31.8587 42.2317C32.4858 43.7449 33.5476 45.0381 34.9098 45.9477C36.272 46.8574 37.8734 47.3426 39.5114 47.342C41.3214 47.3356 43.0783 46.73 44.5079 45.6199L57.1996 58.3332C54.7469 61.1621 53.3895 64.7765 53.3737 68.5205C53.3737 68.8748 53.4538 69.2044 53.4784 69.5525L36.3353 71.7736C35.5135 70.0202 34.0731 68.6322 32.2905 67.8759C30.5079 67.1196 28.5088 67.0484 26.677 67.6759C24.8451 68.3034 23.3095 69.5854 22.365 71.2758C21.4205 72.9662 21.1337 74.9459 21.5595 76.8349C21.9854 78.7238 23.0939 80.389 24.6724 81.5106C26.2508 82.6323 28.188 83.1313 30.1119 82.9121C32.0358 82.6929 33.8109 81.7708 35.0966 80.3228C36.3822 78.8748 37.0878 77.003 37.0777 75.0666C37.0777 74.9711 37.0531 74.8849 37.05 74.7894L53.9743 72.596C54.5882 74.8793 55.7108 76.994 57.2582 78.7817L45.7586 91.1038C44.4532 90.3274 42.9647 89.9127 41.4459 89.9023C39.7318 89.9017 38.0559 90.4095 36.6304 91.3614C35.2049 92.3134 34.0937 93.6667 33.4375 95.2503C32.7812 96.8338 32.6094 98.5765 32.9436 100.258C33.2779 101.939 34.1033 103.483 35.3154 104.695C36.5275 105.907 38.0717 106.733 39.753 107.067C41.4342 107.401 43.1769 107.229 44.7604 106.573C46.3439 105.917 47.6973 104.806 48.6492 103.38C49.6012 101.955 50.1089 100.279 50.1082 98.5648C50.0996 96.5687 49.3948 94.6381 48.1152 93.1061L59.5131 80.9196C61.8897 82.8365 64.7846 84.0001 67.8268 84.2614C70.8689 84.5226 73.9197 83.8696 76.5884 82.3859L85.7437 91.4242C84.195 93.1467 83.3497 95.3879 83.375 97.7041C83.4004 100.02 84.2946 102.243 85.8806 103.931C87.4666 105.619 89.6288 106.65 91.939 106.82C94.2491 106.989 96.5387 106.285 98.3544 104.847C100.17 103.409 101.379 101.341 101.743 99.0534C102.107 96.7658 101.598 94.4251 100.317 92.4947C99.0371 90.5644 97.0786 89.1853 94.8297 88.6305C92.5808 88.0756 90.2055 88.3855 88.1742 89.4988L79.1945 80.6331C80.8101 79.3303 82.148 77.7166 83.1288 75.8875C84.1097 74.0585 84.7137 72.0512 84.905 69.9845C85.0963 67.9179 84.871 65.834 84.2426 63.856C83.6141 61.8779 82.5951 60.046 81.2461 58.4688L97.5143 43.824C98.9153 44.6168 100.495 45.0407 102.104 45.0562C104.657 45.0562 107.106 44.042 108.911 42.2367C110.717 40.4314 111.731 37.9828 111.731 35.4296C111.731 32.8765 110.717 30.4279 108.911 28.6226C107.106 26.8172 104.657 25.803 102.104 25.803L102.083 25.7784ZM29.1823 79.8814C28.23 79.8814 27.2992 79.5991 26.5074 79.07C25.7156 78.541 25.0985 77.7889 24.7341 76.9091C24.3696 76.0293 24.2742 75.0613 24.46 74.1273C24.6458 73.1933 25.1044 72.3353 25.7777 71.662C26.4511 70.9886 27.3091 70.5301 28.2431 70.3443C29.1771 70.1585 30.1451 70.2538 31.0249 70.6183C31.9047 70.9827 32.6567 71.5999 33.1857 72.3917C33.7148 73.1835 33.9972 74.1143 33.9972 75.0666C33.9964 76.3433 33.4888 77.5676 32.586 78.4703C31.6833 79.3731 30.459 79.8806 29.1823 79.8814ZM98.4262 97.4004C98.4268 98.5812 98.0771 99.7358 97.4215 100.718C96.7659 101.7 95.8337 102.466 94.7429 102.918C93.6521 103.371 92.4516 103.489 91.2933 103.259C90.135 103.029 89.071 102.461 88.2357 101.626C87.4005 100.791 86.8316 99.7274 86.601 98.5693C86.3704 97.4111 86.4885 96.2106 86.9403 95.1195C87.392 94.0284 88.1572 93.0959 89.1391 92.4397C90.1209 91.7836 91.2752 91.4334 92.4561 91.4334C94.0384 91.435 95.5556 92.0641 96.6747 93.1827C97.7939 94.3013 98.4238 95.818 98.4262 97.4004ZM39.5114 44.2615C38.4827 44.2621 37.4768 43.9576 36.6212 43.3864C35.7656 42.8153 35.0987 42.0032 34.7047 41.0529C34.3108 40.1026 34.2076 39.0569 34.4081 38.0479C34.6087 37.0389 35.1039 36.1121 35.8313 35.3847C36.5588 34.6573 37.4856 34.1619 38.4946 33.9614C39.5035 33.7608 40.5493 33.8641 41.4996 34.2581C42.4499 34.652 43.262 35.319 43.8331 36.1746C44.4042 37.0302 44.7087 38.0359 44.7081 39.0646C44.7065 40.4424 44.1585 41.7633 43.1842 42.7376C42.21 43.7118 40.8891 44.2598 39.5114 44.2615ZM41.4367 104.14C40.332 104.141 39.2518 103.814 38.333 103.201C37.4141 102.587 36.6978 101.715 36.2746 100.695C35.8514 99.6745 35.7404 98.5514 35.9555 97.4679C36.1707 96.3843 36.7023 95.3888 37.4833 94.6074C38.2642 93.826 39.2594 93.2938 40.3429 93.0781C41.4263 92.8623 42.5494 92.9727 43.5701 93.3953C44.5908 93.818 45.4633 94.5339 46.0771 95.4524C46.6909 96.3709 47.0185 97.4508 47.0185 98.5555C47.0169 100.036 46.4284 101.455 45.382 102.502C44.3356 103.549 42.9169 104.138 41.4367 104.14ZM59.5347 68.5205C59.5347 66.6166 60.0993 64.7553 61.157 63.1722C62.2148 61.5891 63.7183 60.3553 65.4774 59.6267C67.2364 58.8981 69.172 58.7074 71.0394 59.0788C72.9067 59.4503 74.622 60.3672 75.9683 61.7135C77.3146 63.0598 78.2315 64.7751 78.6029 66.6425C78.9744 68.5099 78.7837 70.4455 78.0551 72.2045C77.3265 73.9635 76.0926 75.4669 74.5095 76.5247C72.9265 77.5825 71.0653 78.1471 69.1613 78.1471C66.6092 78.1439 64.1625 77.1286 62.3578 75.3239C60.5532 73.5193 59.538 71.0727 59.5347 68.5205ZM102.083 41.9511C100.788 41.9511 99.5224 41.5672 98.4459 40.8479C97.3694 40.1286 96.5304 39.1062 96.035 37.9101C95.5395 36.7139 95.4098 35.3977 95.6624 34.1279C95.915 32.8581 96.5385 31.6917 97.454 30.7762C98.3694 29.8607 99.5359 29.2373 100.806 28.9847C102.076 28.7321 103.392 28.8617 104.588 29.3572C105.784 29.8526 106.806 30.6916 107.526 31.7681C108.245 32.8446 108.629 34.1103 108.629 35.405C108.627 37.1406 107.937 38.8047 106.71 40.032C105.482 41.2592 103.818 41.9495 102.083 41.9511Z" fill="white"/>
</g>
</g>
<path d="M216.094 72H207.438L194 59.1875H174.375V52.875H200.094C201.427 52.875 202.677 52.625 203.844 52.125C205.01 51.6042 206.021 50.9062 206.875 50.0312C207.75 49.1562 208.438 48.1354 208.938 46.9688C209.438 45.7812 209.688 44.5208 209.688 43.1875C209.688 41.8542 209.438 40.6042 208.938 39.4375C208.438 38.2708 207.75 37.2604 206.875 36.4062C206.021 35.5312 205.01 34.8438 203.844 34.3438C202.677 33.8438 201.427 33.5938 200.094 33.5938H170.781V72H164.375V27.1875H200.094C202.302 27.1875 204.375 27.6146 206.312 28.4688C208.25 29.3021 209.938 30.4479 211.375 31.9062C212.833 33.3438 213.979 35.0312 214.812 36.9688C215.667 38.9062 216.094 40.9792 216.094 43.1875C216.094 45.1875 215.75 47.0833 215.062 48.875C214.375 50.6458 213.427 52.2396 212.219 53.6562C211.01 55.0521 209.583 56.2188 207.938 57.1562C206.312 58.0729 204.552 58.6875 202.656 59L216.094 72ZM272.312 27.1875L272.25 49.5938C272.25 51.6771 271.979 53.6771 271.438 55.5938C270.917 57.4896 270.167 59.2708 269.188 60.9375C268.229 62.5833 267.062 64.0938 265.688 65.4688C264.333 66.8229 262.823 67.9896 261.156 68.9688C259.51 69.9271 257.74 70.6771 255.844 71.2188C253.948 71.7396 251.969 72 249.906 72H245.188C243.125 72 241.135 71.7396 239.219 71.2188C237.323 70.6771 235.542 69.9167 233.875 68.9375C232.229 67.9583 230.729 66.7917 229.375 65.4375C228.021 64.0625 226.854 62.5521 225.875 60.9062C224.917 59.2396 224.167 57.4583 223.625 55.5625C223.104 53.6458 222.844 51.6562 222.844 49.5938V27.1875H229.25V49.5938C229.25 51.8021 229.667 53.8854 230.5 55.8438C231.333 57.7812 232.469 59.4792 233.906 60.9375C235.365 62.375 237.062 63.5104 239 64.3438C240.938 65.1771 243 65.5938 245.188 65.5938H249.906C252.115 65.5938 254.188 65.1771 256.125 64.3438C258.062 63.5104 259.75 62.375 261.188 60.9375C262.625 59.4792 263.76 57.7812 264.594 55.8438C265.427 53.8854 265.844 51.8021 265.844 49.5938V27.1875H272.25H272.312ZM287.969 72H281.562V27.1875H287.969V72Z" fill="white"/>
<path d="M176.262 104H172.992L169.242 100.426H164.379V98.0469H171.023C171.359 98.0469 171.676 97.9805 171.973 97.8477C172.27 97.7148 172.527 97.5391 172.746 97.3203C172.965 97.0938 173.137 96.832 173.262 96.5352C173.387 96.2383 173.449 95.9258 173.449 95.5977C173.449 95.2617 173.387 94.9492 173.262 94.6602C173.137 94.3633 172.965 94.1055 172.746 93.8867C172.527 93.668 172.27 93.4961 171.973 93.3711C171.676 93.2383 171.359 93.1719 171.023 93.1719H163.125V104H160.723V90.8047H171.023C171.688 90.8047 172.312 90.9336 172.898 91.1914C173.484 91.4414 173.992 91.7852 174.422 92.2227C174.859 92.6523 175.203 93.1602 175.453 93.7461C175.703 94.3242 175.828 94.9414 175.828 95.5977C175.828 96.1367 175.742 96.6562 175.57 97.1562C175.398 97.6484 175.156 98.1016 174.844 98.5156C174.539 98.9219 174.176 99.2734 173.754 99.5703C173.332 99.8672 172.871 100.086 172.371 100.227L176.262 104ZM268.852 90.8047V97.4023C268.852 98.3164 268.68 99.1758 268.336 99.9805C267.992 100.777 267.52 101.477 266.918 102.078C266.324 102.672 265.629 103.141 264.832 103.484C264.035 103.828 263.184 104 262.277 104H260.953C260.047 104 259.195 103.828 258.398 103.484C257.602 103.133 256.902 102.66 256.301 102.066C255.707 101.465 255.238 100.766 254.895 99.9688C254.551 99.1641 254.379 98.3086 254.379 97.4023V90.8047H256.781V97.4023C256.781 97.9805 256.891 98.5273 257.109 99.043C257.328 99.5508 257.625 99.9961 258 100.379C258.383 100.754 258.824 101.051 259.324 101.27C259.832 101.488 260.375 101.598 260.953 101.598H262.277C262.855 101.598 263.398 101.488 263.906 101.27C264.414 101.051 264.855 100.754 265.23 100.379C265.605 99.9961 265.902 99.5508 266.121 99.043C266.34 98.5273 266.449 97.9805 266.449 97.4023V90.8047H268.852ZM334.852 104H332.473V90.8047H334.852V104Z" fill="#205EFC"/>
<path d="M192.457 104H178.676V90.7578H192.457V93.1719H181.102V101.574H192.457V104ZM190.922 98.5273H182.238V96.1016H190.922V98.5273ZM210.234 104H207.832V100.379H198.586V97.9297H207.832V93.1719H201.586C201 93.1719 200.449 93.2852 199.934 93.5117C199.418 93.7305 198.969 94.0312 198.586 94.4141C198.203 94.7969 197.898 95.2461 197.672 95.7617C197.453 96.2695 197.344 96.8164 197.344 97.4023V104H194.918V97.4023C194.918 96.4805 195.094 95.6172 195.445 94.8125C195.797 94.0078 196.273 93.3047 196.875 92.7031C197.477 92.1016 198.184 91.6289 198.996 91.2852C199.809 90.9336 200.672 90.7578 201.586 90.7578H210.234V104ZM227.59 104H219.07C218.141 104 217.297 103.828 216.539 103.484C215.781 103.141 215.133 102.672 214.594 102.078C214.055 101.477 213.637 100.773 213.34 99.9688C213.051 99.1562 212.906 98.2852 212.906 97.3555C212.906 96.4336 213.051 95.5742 213.34 94.7773C213.637 93.9727 214.055 93.2734 214.594 92.6797C215.133 92.0859 215.781 91.6172 216.539 91.2734C217.297 90.9297 218.141 90.7578 219.07 90.7578H227.59V93.1719H219.07C218.492 93.1719 217.969 93.2812 217.5 93.5C217.039 93.7188 216.648 94.0156 216.328 94.3906C216.008 94.7656 215.762 95.207 215.59 95.7148C215.418 96.2227 215.332 96.7695 215.332 97.3555C215.332 97.9492 215.418 98.5039 215.59 99.0195C215.762 99.5273 216.008 99.9727 216.328 100.355C216.648 100.73 217.039 101.027 217.5 101.246C217.969 101.465 218.492 101.574 219.07 101.574H227.59V104ZM237.562 104H235.16V93.1719H228.809V90.8047H243.902V93.1719H237.562V104ZM286.57 100.109C286.57 100.648 286.469 101.156 286.266 101.633C286.062 102.102 285.785 102.512 285.434 102.863C285.09 103.215 284.68 103.492 284.203 103.695C283.734 103.898 283.23 104 282.691 104H271.477V101.598H282.691C282.902 101.598 283.098 101.562 283.277 101.492C283.465 101.414 283.625 101.309 283.758 101.176C283.898 101.035 284.008 100.875 284.086 100.695C284.164 100.516 284.203 100.32 284.203 100.109C284.203 99.8984 284.164 99.7031 284.086 99.5234C284.008 99.3359 283.898 99.1758 283.758 99.043C283.625 98.9023 283.465 98.793 283.277 98.7148C283.098 98.6367 282.902 98.5977 282.691 98.5977H275.344C274.812 98.5977 274.312 98.4961 273.844 98.293C273.375 98.0898 272.965 97.8125 272.613 97.4609C272.262 97.1016 271.984 96.6836 271.781 96.207C271.578 95.7305 271.477 95.2227 271.477 94.6836C271.477 94.1602 271.578 93.6641 271.781 93.1953C271.984 92.7188 272.262 92.3047 272.613 91.9531C272.965 91.6016 273.375 91.3242 273.844 91.1211C274.312 90.9102 274.812 90.8047 275.344 90.8047H285.691V93.1719H275.344C275.141 93.1719 274.945 93.2148 274.758 93.3008C274.578 93.3789 274.422 93.4883 274.289 93.6289C274.156 93.7617 274.051 93.9219 273.973 94.1094C273.895 94.2891 273.855 94.4805 273.855 94.6836C273.855 94.8945 273.895 95.0938 273.973 95.2812C274.051 95.4609 274.156 95.6211 274.289 95.7617C274.422 95.8945 274.578 96 274.758 96.0781C274.945 96.1562 275.141 96.1953 275.344 96.1953H282.691C283.23 96.1953 283.734 96.3008 284.203 96.5117C284.68 96.7148 285.09 96.9961 285.434 97.3555C285.785 97.707 286.062 98.1211 286.266 98.5977C286.469 99.0742 286.57 99.5781 286.57 100.109ZM302.848 104H289.066V90.7578H302.848V93.1719H291.492V101.574H302.848V104ZM301.312 98.5273H292.629V96.1016H301.312V98.5273ZM321.059 104H317.789L314.039 100.426H309.176V98.0469H315.82C316.156 98.0469 316.473 97.9805 316.77 97.8477C317.066 97.7148 317.324 97.5391 317.543 97.3203C317.762 97.0938 317.934 96.832 318.059 96.5352C318.184 96.2383 318.246 95.9258 318.246 95.5977C318.246 95.2617 318.184 94.9492 318.059 94.6602C317.934 94.3633 317.762 94.1055 317.543 93.8867C317.324 93.668 317.066 93.4961 316.77 93.3711C316.473 93.2383 316.156 93.1719 315.82 93.1719H307.922V104H305.52V90.8047H315.82C316.484 90.8047 317.109 90.9336 317.695 91.1914C318.281 91.4414 318.789 91.7852 319.219 92.2227C319.656 92.6523 320 93.1602 320.25 93.7461C320.5 94.3242 320.625 94.9414 320.625 95.5977C320.625 96.1367 320.539 96.6562 320.367 97.1562C320.195 97.6484 319.953 98.1016 319.641 98.5156C319.336 98.9219 318.973 99.2734 318.551 99.5703C318.129 99.8672 317.668 100.086 317.168 100.227L321.059 104ZM350.438 104C350.438 103.125 350.289 102.277 349.992 101.457C349.703 100.629 349.309 99.8516 348.809 99.125C348.316 98.3906 347.742 97.707 347.086 97.0742C346.438 96.4414 345.754 95.8789 345.035 95.3867C344.316 94.8867 343.582 94.4688 342.832 94.1328C342.09 93.7891 341.383 93.5352 340.711 93.3711V104H338.309V90.8047H339.609V90.8281C340.469 90.875 341.383 91.0664 342.352 91.4023C343.328 91.7305 344.297 92.1797 345.258 92.75C346.227 93.3125 347.156 93.9844 348.047 94.7656C348.945 95.5391 349.742 96.3945 350.438 97.332V90.8047H352.828V104H350.438ZM363.586 104H361.184V93.1719H354.832V90.8047H369.926V93.1719H363.586V104ZM385.699 104H371.918V90.7578H385.699V93.1719H374.344V101.574H385.699V104ZM384.164 98.5273H375.48V96.1016H384.164V98.5273ZM403.91 104H400.641L396.891 100.426H392.027V98.0469H398.672C399.008 98.0469 399.324 97.9805 399.621 97.8477C399.918 97.7148 400.176 97.5391 400.395 97.3203C400.613 97.0938 400.785 96.832 400.91 96.5352C401.035 96.2383 401.098 95.9258 401.098 95.5977C401.098 95.2617 401.035 94.9492 400.91 94.6602C400.785 94.3633 400.613 94.1055 400.395 93.8867C400.176 93.668 399.918 93.4961 399.621 93.3711C399.324 93.2383 399.008 93.1719 398.672 93.1719H390.773V104H388.371V90.8047H398.672C399.336 90.8047 399.961 90.9336 400.547 91.1914C401.133 91.4414 401.641 91.7852 402.07 92.2227C402.508 92.6523 402.852 93.1602 403.102 93.7461C403.352 94.3242 403.477 94.9414 403.477 95.5977C403.477 96.1367 403.391 96.6562 403.219 97.1562C403.047 97.6484 402.805 98.1016 402.492 98.5156C402.188 98.9219 401.824 99.2734 401.402 99.5703C400.98 99.8672 400.52 100.086 400.02 100.227L403.91 104ZM420.129 93.1719H408.75V104H406.324V90.7578H420.129V93.1719ZM418.57 98.5273H409.887V96.1016H418.57V98.5273ZM437.297 104H434.895V100.379H425.648V97.9297H434.895V93.1719H428.648C428.062 93.1719 427.512 93.2852 426.996 93.5117C426.48 93.7305 426.031 94.0312 425.648 94.4141C425.266 94.7969 424.961 95.2461 424.734 95.7617C424.516 96.2695 424.406 96.8164 424.406 97.4023V104H421.98V97.4023C421.98 96.4805 422.156 95.6172 422.508 94.8125C422.859 94.0078 423.336 93.3047 423.938 92.7031C424.539 92.1016 425.246 91.6289 426.059 91.2852C426.871 90.9336 427.734 90.7578 428.648 90.7578H437.297V104ZM454.652 104H446.133C445.203 104 444.359 103.828 443.602 103.484C442.844 103.141 442.195 102.672 441.656 102.078C441.117 101.477 440.699 100.773 440.402 99.9688C440.113 99.1562 439.969 98.2852 439.969 97.3555C439.969 96.4336 440.113 95.5742 440.402 94.7773C440.699 93.9727 441.117 93.2734 441.656 92.6797C442.195 92.0859 442.844 91.6172 443.602 91.2734C444.359 90.9297 445.203 90.7578 446.133 90.7578H454.652V93.1719H446.133C445.555 93.1719 445.031 93.2812 444.562 93.5C444.102 93.7188 443.711 94.0156 443.391 94.3906C443.07 94.7656 442.824 95.207 442.652 95.7148C442.48 96.2227 442.395 96.7695 442.395 97.3555C442.395 97.9492 442.48 98.5039 442.652 99.0195C442.824 99.5273 443.07 99.9727 443.391 100.355C443.711 100.73 444.102 101.027 444.562 101.246C445.031 101.465 445.555 101.574 446.133 101.574H454.652V104ZM471.105 104H457.324V90.7578H471.105V93.1719H459.75V101.574H471.105V104ZM469.57 98.5273H460.887V96.1016H469.57V98.5273Z" fill="white"/>
<defs>
<clipPath id="clip0_1011_105">
<rect width="98.5765" height="98.5765" fill="white" transform="translate(17.2119 17.2119)"/>
</clipPath>
</defs>
</svg>


