<?xml version="1.0" encoding="UTF-8" standalone="no"?>
<svg width="679" height="223" viewBox="0 0 679 223" fill="none" xmlns="http://www.w3.org/2000/svg">
<rect width="679" height="223" fill="white"/>
<rect x="40" y="40" width="143" height="143" fill="#205EFC"/>
<g clip-path="url(#clip0_1009_7)">
<mask id="mask0_1009_7" style="mask-type:luminance" maskUnits="userSpaceOnUse" x="58" y="58" width="107" height="107">
<path d="M164.614 58.3857H58.3857V164.614H164.614V58.3857Z" fill="white"/>
</mask>
<g mask="url(#mask0_1009_7)">
<path d="M149.845 67.6173C147.831 67.6097 145.858 68.1912 144.17 69.29C142.481 70.3889 141.151 71.9574 140.342 73.8024C139.534 75.6474 139.282 77.6886 139.618 79.6749C139.954 81.6612 140.863 83.5059 142.233 84.9823L124.998 100.502C122.034 98.0407 118.307 96.6845 114.454 96.6645C110.602 96.6446 106.861 97.9619 103.872 100.392L90.0255 86.5259C90.8767 85.1453 91.3304 83.5567 91.3367 81.9348C91.3374 80.1697 90.8146 78.4441 89.8343 76.9761C88.8541 75.5082 87.4605 74.364 85.8298 73.6882C84.1992 73.0124 82.4047 72.8354 80.6735 73.1796C78.9423 73.5238 77.3521 74.3737 76.1039 75.6219C74.8558 76.87 74.0058 78.4603 73.6616 80.1915C73.3174 81.9228 73.4944 83.7172 74.1702 85.3478C74.846 86.9784 75.9902 88.372 77.4581 89.3523C78.926 90.3325 80.6518 90.8554 82.4169 90.8548C84.3674 90.8479 86.2607 90.1953 87.8013 88.999L101.478 102.699C98.8351 105.748 97.3724 109.643 97.3553 113.677C97.3553 114.059 97.4416 114.414 97.4681 114.789L78.9943 117.183C78.1087 115.293 76.5564 113.798 74.6355 112.983C72.7145 112.168 70.5603 112.091 68.5862 112.767C66.6121 113.443 64.9573 114.825 63.9395 116.646C62.9217 118.468 62.6126 120.601 63.0715 122.637C63.5304 124.673 64.725 126.467 66.426 127.676C68.127 128.884 70.2145 129.422 72.2878 129.186C74.361 128.95 76.274 127.956 77.6594 126.396C79.0448 124.835 79.8052 122.818 79.7943 120.732C79.7943 120.629 79.7678 120.536 79.7645 120.433L98.0025 118.069C98.664 120.53 99.8739 122.809 101.541 124.735L89.1491 138.014C87.7424 137.177 86.1382 136.73 84.5016 136.719C82.6544 136.718 80.8485 137.265 79.3123 138.291C77.7762 139.317 76.5787 140.775 75.8715 142.482C75.1643 144.188 74.9791 146.066 75.3394 147.878C75.6996 149.69 76.5891 151.354 77.8952 152.66C79.2014 153.966 80.8655 154.856 82.6773 155.216C84.489 155.576 86.3669 155.391 88.0734 154.684C89.7799 153.977 91.2382 152.779 92.2641 151.243C93.2899 149.707 93.837 147.901 93.8364 146.054C93.8271 143.903 93.0676 141.822 91.6887 140.171L103.971 127.039C106.532 129.105 109.652 130.359 112.93 130.64C116.209 130.922 119.496 130.218 122.372 128.619L132.238 138.359C130.569 140.215 129.658 142.63 129.686 145.126C129.713 147.622 130.676 150.017 132.386 151.836C134.095 153.656 136.425 154.767 138.914 154.949C141.404 155.132 143.871 154.374 145.828 152.824C147.784 151.274 149.088 149.046 149.479 146.58C149.871 144.115 149.323 141.593 147.943 139.513C146.563 137.432 144.453 135.946 142.029 135.348C139.606 134.75 137.046 135.084 134.857 136.284L125.18 126.73C126.922 125.326 128.363 123.587 129.42 121.616C130.477 119.645 131.128 117.482 131.334 115.255C131.54 113.028 131.298 110.782 130.62 108.651C129.943 106.519 128.845 104.545 127.391 102.845L144.922 87.0637C146.432 87.918 148.134 88.3749 149.869 88.3916C152.62 88.3916 155.259 87.2986 157.204 85.3532C159.15 83.4077 160.243 80.769 160.243 78.0177C160.243 75.2664 159.15 72.6277 157.204 70.6822C155.259 68.7367 152.62 67.6438 149.869 67.6438L149.845 67.6173ZM71.286 125.92C70.2598 125.92 69.2567 125.616 68.4034 125.046C67.5502 124.476 66.8852 123.665 66.4925 122.717C66.0998 121.769 65.997 120.726 66.1972 119.719C66.3974 118.713 66.8916 117.788 67.6172 117.063C68.3428 116.337 69.2674 115.843 70.2739 115.643C71.2804 115.442 72.3236 115.545 73.2717 115.938C74.2198 116.331 75.0301 116.996 75.6002 117.849C76.1704 118.702 76.4747 119.705 76.4747 120.732C76.4738 122.107 75.9268 123.427 74.954 124.399C73.9811 125.372 72.6619 125.919 71.286 125.92ZM145.905 144.799C145.906 146.072 145.529 147.316 144.822 148.374C144.116 149.433 143.111 150.258 141.936 150.745C140.76 151.233 139.467 151.36 138.218 151.113C136.97 150.865 135.824 150.252 134.924 149.353C134.023 148.453 133.41 147.307 133.162 146.059C132.913 144.811 133.041 143.517 133.528 142.341C134.014 141.165 134.839 140.16 135.897 139.453C136.955 138.746 138.199 138.369 139.472 138.369C141.177 138.371 142.812 139.048 144.018 140.254C145.224 141.459 145.902 143.094 145.905 144.799ZM82.4169 87.5351C81.3083 87.5358 80.2244 87.2076 79.3024 86.5921C78.3804 85.9767 77.6617 85.1015 77.2371 84.0775C76.8126 83.0534 76.7014 81.9265 76.9175 80.8392C77.1336 79.7519 77.6673 78.7531 78.4512 77.9693C79.2351 77.1854 80.2339 76.6516 81.3212 76.4355C82.4084 76.2194 83.5354 76.3307 84.5594 76.7552C85.5835 77.1797 86.4586 77.8984 87.0741 78.8204C87.6896 79.7425 88.0177 80.8263 88.0171 81.9348C88.0153 83.4196 87.4247 84.8431 86.3749 85.8929C85.325 86.9428 83.9016 87.5334 82.4169 87.5351ZM84.4917 152.062C83.3012 152.063 82.1372 151.711 81.147 151.05C80.1568 150.389 79.3849 149.449 78.9289 148.349C78.4728 147.25 78.3532 146.039 78.585 144.872C78.8169 143.704 79.3898 142.631 80.2314 141.789C81.073 140.947 82.1454 140.374 83.313 140.141C84.4805 139.909 85.6908 140.028 86.7907 140.483C87.8907 140.938 88.8308 141.71 89.4923 142.7C90.1538 143.69 90.5068 144.853 90.5068 146.044C90.505 147.639 89.8708 149.168 88.7432 150.296C87.6156 151.425 86.0868 152.06 84.4917 152.062ZM103.995 113.677C103.995 111.626 104.603 109.62 105.743 107.914C106.883 106.208 108.503 104.878 110.399 104.093C112.294 103.308 114.38 103.102 116.392 103.503C118.405 103.903 120.253 104.891 121.704 106.342C123.155 107.793 124.143 109.641 124.543 111.653C124.943 113.666 124.738 115.752 123.953 117.647C123.167 119.543 121.838 121.163 120.132 122.303C118.426 123.443 116.42 124.051 114.368 124.051C111.618 124.048 108.982 122.954 107.037 121.009C105.092 119.064 103.998 116.428 103.995 113.677ZM149.845 85.0454C148.45 85.0454 147.086 84.6317 145.926 83.8565C144.766 83.0814 143.862 81.9797 143.328 80.6907C142.794 79.4017 142.655 77.9833 142.927 76.6149C143.199 75.2465 143.871 73.9896 144.857 73.0031C145.844 72.0165 147.101 71.3446 148.469 71.0725C149.838 70.8003 151.256 70.9399 152.545 71.4738C153.834 72.0078 154.936 72.9119 155.711 74.072C156.486 75.232 156.9 76.5959 156.9 77.9911C156.898 79.8615 156.154 81.6547 154.832 82.9773C153.509 84.2998 151.716 85.0436 149.845 85.0454Z" fill="white"/>
</g>
</g>
<path d="M312.209 128H298.684L277.688 107.98H247.023V98.1172H287.209C289.292 98.1172 291.245 97.7266 293.068 96.9453C294.891 96.1315 296.47 95.041 297.805 93.6738C299.172 92.3066 300.246 90.7116 301.027 88.8887C301.809 87.0332 302.199 85.0638 302.199 82.9805C302.199 80.8971 301.809 78.944 301.027 77.1211C300.246 75.2982 299.172 73.7194 297.805 72.3848C296.47 71.0176 294.891 69.9434 293.068 69.1621C291.245 68.3809 289.292 67.9902 287.209 67.9902H241.408V128H231.398V57.9805H287.209C290.66 57.9805 293.898 58.6478 296.926 59.9824C299.953 61.2845 302.59 63.0749 304.836 65.3535C307.115 67.5996 308.905 70.2363 310.207 73.2637C311.542 76.291 312.209 79.5299 312.209 82.9805C312.209 86.1055 311.672 89.0677 310.598 91.8672C309.523 94.6341 308.042 97.1243 306.154 99.3379C304.266 101.519 302.036 103.342 299.465 104.807C296.926 106.239 294.175 107.199 291.213 107.688L312.209 128ZM400.051 57.9805L399.953 92.9902C399.953 96.2454 399.53 99.3704 398.684 102.365C397.87 105.327 396.698 108.111 395.168 110.715C393.671 113.286 391.848 115.646 389.699 117.795C387.583 119.911 385.223 121.734 382.619 123.264C380.048 124.761 377.281 125.933 374.318 126.779C371.356 127.593 368.264 128 365.041 128H357.668C354.445 128 351.337 127.593 348.342 126.779C345.38 125.933 342.596 124.745 339.992 123.215C337.421 121.685 335.077 119.862 332.961 117.746C330.845 115.598 329.022 113.238 327.492 110.666C325.995 108.062 324.823 105.279 323.977 102.316C323.163 99.3216 322.756 96.2129 322.756 92.9902V57.9805H332.766V92.9902C332.766 96.4408 333.417 99.696 334.719 102.756C336.021 105.783 337.795 108.436 340.041 110.715C342.32 112.961 344.973 114.735 348 116.037C351.027 117.339 354.25 117.99 357.668 117.99H365.041C368.492 117.99 371.73 117.339 374.758 116.037C377.785 114.735 380.422 112.961 382.668 110.715C384.914 108.436 386.688 105.783 387.99 102.756C389.292 99.696 389.943 96.4408 389.943 92.9902V57.9805H399.953H400.051ZM424.514 128H414.504V57.9805H424.514V128Z" fill="#21242C"/>
<path d="M246.262 167H242.992L239.242 163.426H234.379V161.047H241.023C241.359 161.047 241.676 160.98 241.973 160.848C242.27 160.715 242.527 160.539 242.746 160.32C242.965 160.094 243.137 159.832 243.262 159.535C243.387 159.238 243.449 158.926 243.449 158.598C243.449 158.262 243.387 157.949 243.262 157.66C243.137 157.363 242.965 157.105 242.746 156.887C242.527 156.668 242.27 156.496 241.973 156.371C241.676 156.238 241.359 156.172 241.023 156.172H233.125V167H230.723V153.805H241.023C241.688 153.805 242.312 153.934 242.898 154.191C243.484 154.441 243.992 154.785 244.422 155.223C244.859 155.652 245.203 156.16 245.453 156.746C245.703 157.324 245.828 157.941 245.828 158.598C245.828 159.137 245.742 159.656 245.57 160.156C245.398 160.648 245.156 161.102 244.844 161.516C244.539 161.922 244.176 162.273 243.754 162.57C243.332 162.867 242.871 163.086 242.371 163.227L246.262 167ZM338.852 153.805V160.402C338.852 161.316 338.68 162.176 338.336 162.98C337.992 163.777 337.52 164.477 336.918 165.078C336.324 165.672 335.629 166.141 334.832 166.484C334.035 166.828 333.184 167 332.277 167H330.953C330.047 167 329.195 166.828 328.398 166.484C327.602 166.133 326.902 165.66 326.301 165.066C325.707 164.465 325.238 163.766 324.895 162.969C324.551 162.164 324.379 161.309 324.379 160.402V153.805H326.781V160.402C326.781 160.98 326.891 161.527 327.109 162.043C327.328 162.551 327.625 162.996 328 163.379C328.383 163.754 328.824 164.051 329.324 164.27C329.832 164.488 330.375 164.598 330.953 164.598H332.277C332.855 164.598 333.398 164.488 333.906 164.27C334.414 164.051 334.855 163.754 335.23 163.379C335.605 162.996 335.902 162.551 336.121 162.043C336.34 161.527 336.449 160.98 336.449 160.402V153.805H338.852ZM404.852 167H402.473V153.805H404.852V167Z" fill="#205EFC"/>
<path d="M262.457 167H248.676V153.758H262.457V156.172H251.102V164.574H262.457V167ZM260.922 161.527H252.238V159.102H260.922V161.527ZM280.234 167H277.832V163.379H268.586V160.93H277.832V156.172H271.586C271 156.172 270.449 156.285 269.934 156.512C269.418 156.73 268.969 157.031 268.586 157.414C268.203 157.797 267.898 158.246 267.672 158.762C267.453 159.27 267.344 159.816 267.344 160.402V167H264.918V160.402C264.918 159.48 265.094 158.617 265.445 157.812C265.797 157.008 266.273 156.305 266.875 155.703C267.477 155.102 268.184 154.629 268.996 154.285C269.809 153.934 270.672 153.758 271.586 153.758H280.234V167ZM297.59 167H289.07C288.141 167 287.297 166.828 286.539 166.484C285.781 166.141 285.133 165.672 284.594 165.078C284.055 164.477 283.637 163.773 283.34 162.969C283.051 162.156 282.906 161.285 282.906 160.355C282.906 159.434 283.051 158.574 283.34 157.777C283.637 156.973 284.055 156.273 284.594 155.68C285.133 155.086 285.781 154.617 286.539 154.273C287.297 153.93 288.141 153.758 289.07 153.758H297.59V156.172H289.07C288.492 156.172 287.969 156.281 287.5 156.5C287.039 156.719 286.648 157.016 286.328 157.391C286.008 157.766 285.762 158.207 285.59 158.715C285.418 159.223 285.332 159.77 285.332 160.355C285.332 160.949 285.418 161.504 285.59 162.02C285.762 162.527 286.008 162.973 286.328 163.355C286.648 163.73 287.039 164.027 287.5 164.246C287.969 164.465 288.492 164.574 289.07 164.574H297.59V167ZM307.562 167H305.16V156.172H298.809V153.805H313.902V156.172H307.562V167ZM356.57 163.109C356.57 163.648 356.469 164.156 356.266 164.633C356.062 165.102 355.785 165.512 355.434 165.863C355.09 166.215 354.68 166.492 354.203 166.695C353.734 166.898 353.23 167 352.691 167H341.477V164.598H352.691C352.902 164.598 353.098 164.562 353.277 164.492C353.465 164.414 353.625 164.309 353.758 164.176C353.898 164.035 354.008 163.875 354.086 163.695C354.164 163.516 354.203 163.32 354.203 163.109C354.203 162.898 354.164 162.703 354.086 162.523C354.008 162.336 353.898 162.176 353.758 162.043C353.625 161.902 353.465 161.793 353.277 161.715C353.098 161.637 352.902 161.598 352.691 161.598H345.344C344.812 161.598 344.312 161.496 343.844 161.293C343.375 161.09 342.965 160.812 342.613 160.461C342.262 160.102 341.984 159.684 341.781 159.207C341.578 158.73 341.477 158.223 341.477 157.684C341.477 157.16 341.578 156.664 341.781 156.195C341.984 155.719 342.262 155.305 342.613 154.953C342.965 154.602 343.375 154.324 343.844 154.121C344.312 153.91 344.812 153.805 345.344 153.805H355.691V156.172H345.344C345.141 156.172 344.945 156.215 344.758 156.301C344.578 156.379 344.422 156.488 344.289 156.629C344.156 156.762 344.051 156.922 343.973 157.109C343.895 157.289 343.855 157.48 343.855 157.684C343.855 157.895 343.895 158.094 343.973 158.281C344.051 158.461 344.156 158.621 344.289 158.762C344.422 158.895 344.578 159 344.758 159.078C344.945 159.156 345.141 159.195 345.344 159.195H352.691C353.23 159.195 353.734 159.301 354.203 159.512C354.68 159.715 355.09 159.996 355.434 160.355C355.785 160.707 356.062 161.121 356.266 161.598C356.469 162.074 356.57 162.578 356.57 163.109ZM372.848 167H359.066V153.758H372.848V156.172H361.492V164.574H372.848V167ZM371.312 161.527H362.629V159.102H371.312V161.527ZM391.059 167H387.789L384.039 163.426H379.176V161.047H385.82C386.156 161.047 386.473 160.98 386.77 160.848C387.066 160.715 387.324 160.539 387.543 160.32C387.762 160.094 387.934 159.832 388.059 159.535C388.184 159.238 388.246 158.926 388.246 158.598C388.246 158.262 388.184 157.949 388.059 157.66C387.934 157.363 387.762 157.105 387.543 156.887C387.324 156.668 387.066 156.496 386.77 156.371C386.473 156.238 386.156 156.172 385.82 156.172H377.922V167H375.52V153.805H385.82C386.484 153.805 387.109 153.934 387.695 154.191C388.281 154.441 388.789 154.785 389.219 155.223C389.656 155.652 390 156.16 390.25 156.746C390.5 157.324 390.625 157.941 390.625 158.598C390.625 159.137 390.539 159.656 390.367 160.156C390.195 160.648 389.953 161.102 389.641 161.516C389.336 161.922 388.973 162.273 388.551 162.57C388.129 162.867 387.668 163.086 387.168 163.227L391.059 167ZM420.438 167C420.438 166.125 420.289 165.277 419.992 164.457C419.703 163.629 419.309 162.852 418.809 162.125C418.316 161.391 417.742 160.707 417.086 160.074C416.438 159.441 415.754 158.879 415.035 158.387C414.316 157.887 413.582 157.469 412.832 157.133C412.09 156.789 411.383 156.535 410.711 156.371V167H408.309V153.805H409.609V153.828C410.469 153.875 411.383 154.066 412.352 154.402C413.328 154.73 414.297 155.18 415.258 155.75C416.227 156.312 417.156 156.984 418.047 157.766C418.945 158.539 419.742 159.395 420.438 160.332V153.805H422.828V167H420.438ZM433.586 167H431.184V156.172H424.832V153.805H439.926V156.172H433.586V167ZM455.699 167H441.918V153.758H455.699V156.172H444.344V164.574H455.699V167ZM454.164 161.527H445.48V159.102H454.164V161.527ZM473.91 167H470.641L466.891 163.426H462.027V161.047H468.672C469.008 161.047 469.324 160.98 469.621 160.848C469.918 160.715 470.176 160.539 470.395 160.32C470.613 160.094 470.785 159.832 470.91 159.535C471.035 159.238 471.098 158.926 471.098 158.598C471.098 158.262 471.035 157.949 470.91 157.66C470.785 157.363 470.613 157.105 470.395 156.887C470.176 156.668 469.918 156.496 469.621 156.371C469.324 156.238 469.008 156.172 468.672 156.172H460.773V167H458.371V153.805H468.672C469.336 153.805 469.961 153.934 470.547 154.191C471.133 154.441 471.641 154.785 472.07 155.223C472.508 155.652 472.852 156.16 473.102 156.746C473.352 157.324 473.477 157.941 473.477 158.598C473.477 159.137 473.391 159.656 473.219 160.156C473.047 160.648 472.805 161.102 472.492 161.516C472.188 161.922 471.824 162.273 471.402 162.57C470.98 162.867 470.52 163.086 470.02 163.227L473.91 167ZM490.129 156.172H478.75V167H476.324V153.758H490.129V156.172ZM488.57 161.527H479.887V159.102H488.57V161.527ZM507.297 167H504.895V163.379H495.648V160.93H504.895V156.172H498.648C498.062 156.172 497.512 156.285 496.996 156.512C496.48 156.73 496.031 157.031 495.648 157.414C495.266 157.797 494.961 158.246 494.734 158.762C494.516 159.27 494.406 159.816 494.406 160.402V167H491.98V160.402C491.98 159.48 492.156 158.617 492.508 157.812C492.859 157.008 493.336 156.305 493.938 155.703C494.539 155.102 495.246 154.629 496.059 154.285C496.871 153.934 497.734 153.758 498.648 153.758H507.297V167ZM524.652 167H516.133C515.203 167 514.359 166.828 513.602 166.484C512.844 166.141 512.195 165.672 511.656 165.078C511.117 164.477 510.699 163.773 510.402 162.969C510.113 162.156 509.969 161.285 509.969 160.355C509.969 159.434 510.113 158.574 510.402 157.777C510.699 156.973 511.117 156.273 511.656 155.68C512.195 155.086 512.844 154.617 513.602 154.273C514.359 153.93 515.203 153.758 516.133 153.758H524.652V156.172H516.133C515.555 156.172 515.031 156.281 514.562 156.5C514.102 156.719 513.711 157.016 513.391 157.391C513.07 157.766 512.824 158.207 512.652 158.715C512.48 159.223 512.395 159.77 512.395 160.355C512.395 160.949 512.48 161.504 512.652 162.02C512.824 162.527 513.07 162.973 513.391 163.355C513.711 163.73 514.102 164.027 514.562 164.246C515.031 164.465 515.555 164.574 516.133 164.574H524.652V167ZM541.105 167H527.324V153.758H541.105V156.172H529.75V164.574H541.105V167ZM539.57 161.527H530.887V159.102H539.57V161.527Z" fill="#21242C"/>
<defs>
<clipPath id="clip0_1009_7">
<rect width="106.229" height="106.229" fill="white" transform="translate(58.3857 58.3857)"/>
</clipPath>
</defs>
</svg>

