<?xml version="1.0" encoding="UTF-8" standalone="no"?>
<svg width="836" height="223" viewBox="0 0 836 223" fill="none" xmlns="http://www.w3.org/2000/svg">
<rect width="836" height="223" fill="white"/>
<rect x="40" y="40" width="143" height="143" fill="#205EFC"/>
<g clip-path="url(#clip0_985_118)">
<mask id="mask0_985_118" style="mask-type:luminance" maskUnits="userSpaceOnUse" x="58" y="58" width="107" height="107">
<path d="M164.614 58.3857H58.3857V164.614H164.614V58.3857Z" fill="white"/>
</mask>
<g mask="url(#mask0_985_118)">
<path d="M149.845 67.6173C147.831 67.6097 145.858 68.1912 144.17 69.29C142.481 70.3889 141.151 71.9574 140.342 73.8024C139.534 75.6474 139.282 77.6886 139.618 79.6749C139.954 81.6612 140.863 83.5059 142.233 84.9823L124.998 100.502C122.034 98.0407 118.307 96.6845 114.454 96.6645C110.602 96.6446 106.861 97.9619 103.872 100.392L90.0255 86.5259C90.8767 85.1453 91.3304 83.5567 91.3367 81.9348C91.3374 80.1697 90.8146 78.4441 89.8343 76.9761C88.8541 75.5082 87.4605 74.364 85.8298 73.6882C84.1992 73.0124 82.4047 72.8354 80.6735 73.1796C78.9423 73.5238 77.3521 74.3737 76.1039 75.6219C74.8558 76.87 74.0058 78.4603 73.6616 80.1915C73.3174 81.9228 73.4944 83.7172 74.1702 85.3478C74.846 86.9784 75.9902 88.372 77.4581 89.3523C78.926 90.3325 80.6518 90.8554 82.4169 90.8548C84.3674 90.8479 86.2607 90.1953 87.8013 88.999L101.478 102.699C98.8351 105.748 97.3724 109.643 97.3553 113.677C97.3553 114.059 97.4416 114.414 97.4681 114.789L78.9943 117.183C78.1087 115.293 76.5564 113.798 74.6355 112.983C72.7145 112.168 70.5603 112.091 68.5862 112.767C66.6121 113.443 64.9573 114.825 63.9395 116.646C62.9217 118.468 62.6126 120.601 63.0715 122.637C63.5304 124.673 64.725 126.467 66.426 127.676C68.127 128.884 70.2145 129.422 72.2878 129.186C74.361 128.95 76.274 127.956 77.6594 126.396C79.0448 124.835 79.8052 122.818 79.7943 120.732C79.7943 120.629 79.7678 120.536 79.7645 120.433L98.0025 118.069C98.664 120.53 99.8739 122.809 101.541 124.735L89.1491 138.014C87.7424 137.177 86.1382 136.73 84.5016 136.719C82.6544 136.718 80.8485 137.265 79.3123 138.291C77.7762 139.317 76.5787 140.775 75.8715 142.482C75.1643 144.188 74.9791 146.066 75.3394 147.878C75.6996 149.69 76.5891 151.354 77.8952 152.66C79.2014 153.966 80.8655 154.856 82.6773 155.216C84.489 155.576 86.3669 155.391 88.0734 154.684C89.7799 153.977 91.2382 152.779 92.2641 151.243C93.2899 149.707 93.837 147.901 93.8364 146.054C93.8271 143.903 93.0676 141.822 91.6887 140.171L103.971 127.039C106.532 129.105 109.652 130.359 112.93 130.64C116.209 130.922 119.496 130.218 122.372 128.619L132.238 138.359C130.569 140.215 129.658 142.63 129.686 145.126C129.713 147.622 130.676 150.017 132.386 151.836C134.095 153.656 136.425 154.767 138.914 154.949C141.404 155.132 143.871 154.374 145.828 152.824C147.784 151.274 149.088 149.046 149.479 146.58C149.871 144.115 149.323 141.593 147.943 139.513C146.563 137.432 144.453 135.946 142.029 135.348C139.606 134.75 137.046 135.084 134.857 136.284L125.18 126.73C126.922 125.326 128.363 123.587 129.42 121.616C130.477 119.645 131.128 117.482 131.334 115.255C131.54 113.028 131.298 110.782 130.62 108.651C129.943 106.519 128.845 104.545 127.391 102.845L144.922 87.0637C146.432 87.918 148.134 88.3749 149.869 88.3916C152.62 88.3916 155.259 87.2986 157.204 85.3532C159.15 83.4077 160.243 80.769 160.243 78.0177C160.243 75.2664 159.15 72.6277 157.204 70.6822C155.259 68.7367 152.62 67.6438 149.869 67.6438L149.845 67.6173ZM71.286 125.92C70.2598 125.92 69.2567 125.616 68.4034 125.046C67.5502 124.476 66.8852 123.665 66.4925 122.717C66.0998 121.769 65.997 120.726 66.1972 119.719C66.3974 118.713 66.8916 117.788 67.6172 117.063C68.3428 116.337 69.2674 115.843 70.2739 115.643C71.2804 115.442 72.3236 115.545 73.2717 115.938C74.2198 116.331 75.0301 116.996 75.6002 117.849C76.1704 118.702 76.4747 119.705 76.4747 120.732C76.4738 122.107 75.9268 123.427 74.954 124.399C73.9811 125.372 72.6619 125.919 71.286 125.92ZM145.905 144.799C145.906 146.072 145.529 147.316 144.822 148.374C144.116 149.433 143.111 150.258 141.936 150.745C140.76 151.233 139.467 151.36 138.218 151.113C136.97 150.865 135.824 150.252 134.924 149.353C134.023 148.453 133.41 147.307 133.162 146.059C132.913 144.811 133.041 143.517 133.528 142.341C134.014 141.165 134.839 140.16 135.897 139.453C136.955 138.746 138.199 138.369 139.472 138.369C141.177 138.371 142.812 139.048 144.018 140.254C145.224 141.459 145.902 143.094 145.905 144.799ZM82.4169 87.5351C81.3083 87.5358 80.2244 87.2076 79.3024 86.5921C78.3804 85.9767 77.6617 85.1015 77.2371 84.0775C76.8126 83.0534 76.7014 81.9265 76.9175 80.8392C77.1336 79.7519 77.6673 78.7531 78.4512 77.9693C79.2351 77.1854 80.2339 76.6516 81.3212 76.4355C82.4084 76.2194 83.5354 76.3307 84.5594 76.7552C85.5835 77.1797 86.4586 77.8984 87.0741 78.8204C87.6896 79.7425 88.0177 80.8263 88.0171 81.9348C88.0153 83.4196 87.4247 84.8431 86.3749 85.8929C85.325 86.9428 83.9016 87.5334 82.4169 87.5351ZM84.4917 152.062C83.3012 152.063 82.1372 151.711 81.147 151.05C80.1568 150.389 79.3849 149.449 78.9289 148.349C78.4728 147.25 78.3532 146.039 78.585 144.872C78.8169 143.704 79.3898 142.631 80.2314 141.789C81.073 140.947 82.1454 140.374 83.313 140.141C84.4805 139.909 85.6908 140.028 86.7907 140.483C87.8907 140.938 88.8308 141.71 89.4923 142.7C90.1538 143.69 90.5068 144.853 90.5068 146.044C90.505 147.639 89.8708 149.168 88.7432 150.296C87.6156 151.425 86.0868 152.06 84.4917 152.062ZM103.995 113.677C103.995 111.626 104.603 109.62 105.743 107.914C106.883 106.208 108.503 104.878 110.399 104.093C112.294 103.308 114.38 103.102 116.392 103.503C118.405 103.903 120.253 104.891 121.704 106.342C123.155 107.793 124.143 109.641 124.543 111.653C124.943 113.666 124.738 115.752 123.953 117.647C123.167 119.543 121.838 121.163 120.132 122.303C118.426 123.443 116.42 124.051 114.368 124.051C111.618 124.048 108.982 122.954 107.037 121.009C105.092 119.064 103.998 116.428 103.995 113.677ZM149.845 85.0454C148.45 85.0454 147.086 84.6317 145.926 83.8565C144.766 83.0814 143.862 81.9797 143.328 80.6907C142.794 79.4017 142.655 77.9833 142.927 76.6149C143.199 75.2465 143.871 73.9896 144.857 73.0031C145.844 72.0165 147.101 71.3446 148.469 71.0725C149.838 70.8003 151.256 70.9399 152.545 71.4738C153.834 72.0078 154.936 72.9119 155.711 74.072C156.486 75.232 156.9 76.5959 156.9 77.9911C156.898 79.8615 156.154 81.6547 154.832 82.9773C153.509 84.2998 151.716 85.0436 149.845 85.0454Z" fill="white"/>
</g>
</g>
<path d="M281.188 111.594C281.188 114.698 280.688 117.615 279.688 120.344C278.708 123.073 277.312 125.448 275.5 127.469C273.688 129.49 271.51 131.083 268.969 132.25C266.448 133.417 263.646 134 260.562 134H237.969V127.594H260.562C262.771 127.594 264.75 127.177 266.5 126.344C268.271 125.51 269.76 124.375 270.969 122.938C272.198 121.479 273.135 119.781 273.781 117.844C274.448 115.885 274.781 113.802 274.781 111.594C274.781 109.385 274.448 107.312 273.781 105.375C273.135 103.438 272.198 101.75 270.969 100.312C269.76 98.8542 268.271 97.7083 266.5 96.875C264.75 96.0208 262.771 95.5938 260.562 95.5938H234.781V134H228.375V89.1875H260.562C263.646 89.1875 266.448 89.7812 268.969 90.9688C271.51 92.1354 273.688 93.7396 275.5 95.7812C277.312 97.8021 278.708 100.177 279.688 102.906C280.688 105.615 281.188 108.51 281.188 111.594ZM325.344 134H288.594V98.6875H325.344V105.125H295.062V127.531H325.344V134ZM321.25 119.406H298.094V112.938H321.25V119.406ZM371.062 123.625C371.062 125.062 370.792 126.417 370.25 127.688C369.708 128.938 368.969 130.031 368.031 130.969C367.115 131.906 366.021 132.646 364.75 133.188C363.5 133.729 362.156 134 360.719 134H330.812V127.594H360.719C361.281 127.594 361.802 127.5 362.281 127.312C362.781 127.104 363.208 126.823 363.562 126.469C363.938 126.094 364.229 125.667 364.438 125.188C364.646 124.708 364.75 124.188 364.75 123.625C364.75 123.062 364.646 122.542 364.438 122.062C364.229 121.562 363.938 121.135 363.562 120.781C363.208 120.406 362.781 120.115 362.281 119.906C361.802 119.698 361.281 119.594 360.719 119.594H341.125C339.708 119.594 338.375 119.323 337.125 118.781C335.875 118.24 334.781 117.5 333.844 116.562C332.906 115.604 332.167 114.49 331.625 113.219C331.083 111.948 330.812 110.594 330.812 109.156C330.812 107.76 331.083 106.438 331.625 105.188C332.167 103.917 332.906 102.812 333.844 101.875C334.781 100.938 335.875 100.198 337.125 99.6562C338.375 99.0938 339.708 98.8125 341.125 98.8125H368.719V105.125H341.125C340.583 105.125 340.062 105.24 339.562 105.469C339.083 105.677 338.667 105.969 338.312 106.344C337.958 106.698 337.677 107.125 337.469 107.625C337.26 108.104 337.156 108.615 337.156 109.156C337.156 109.719 337.26 110.25 337.469 110.75C337.677 111.229 337.958 111.656 338.312 112.031C338.667 112.385 339.083 112.667 339.562 112.875C340.062 113.083 340.583 113.188 341.125 113.188H360.719C362.156 113.188 363.5 113.469 364.75 114.031C366.021 114.573 367.115 115.323 368.031 116.281C368.969 117.219 369.708 118.323 370.25 119.594C370.792 120.865 371.062 122.208 371.062 123.625ZM384.062 134H377.719V98.8125H384.062V134ZM430.344 134H407.625C405.146 134 402.896 133.542 400.875 132.625C398.854 131.708 397.125 130.458 395.688 128.875C394.25 127.271 393.135 125.396 392.344 123.25C391.573 121.083 391.188 118.76 391.188 116.281C391.188 113.823 391.573 111.531 392.344 109.406C393.135 107.26 394.25 105.396 395.688 103.812C397.125 102.229 398.854 100.979 400.875 100.062C402.896 99.1458 405.146 98.6875 407.625 98.6875H430.344V105.125H407.625C406.083 105.125 404.688 105.417 403.438 106C402.208 106.583 401.167 107.375 400.312 108.375C399.458 109.375 398.802 110.552 398.344 111.906C397.885 113.26 397.656 114.719 397.656 116.281C397.656 117.865 397.885 119.344 398.344 120.719C398.802 122.073 399.458 123.26 400.312 124.281C401.167 125.281 402.208 126.073 403.438 126.656C404.688 127.24 406.083 127.531 407.625 127.531H423.875V119.406H405.531V112.938H430.344V134ZM470.812 134C470.812 131.667 470.417 129.406 469.625 127.219C468.854 125.01 467.802 122.938 466.469 121C465.156 119.042 463.625 117.219 461.875 115.531C460.146 113.844 458.323 112.344 456.406 111.031C454.49 109.698 452.531 108.583 450.531 107.688C448.552 106.771 446.667 106.094 444.875 105.656V134H438.469V98.8125H441.938V98.875C444.229 99 446.667 99.5104 449.25 100.406C451.854 101.281 454.438 102.479 457 104C459.583 105.5 462.062 107.292 464.438 109.375C466.833 111.438 468.958 113.719 470.812 116.219V98.8125H477.188V134H470.812ZM560.656 121.188C560.656 122.979 560.323 124.656 559.656 126.219C558.99 127.76 558.073 129.115 556.906 130.281C555.76 131.427 554.406 132.333 552.844 133C551.302 133.667 549.646 134 547.875 134H508.938V127.594H547.875C548.771 127.594 549.604 127.427 550.375 127.094C551.146 126.76 551.812 126.302 552.375 125.719C552.958 125.135 553.417 124.458 553.75 123.688C554.083 122.896 554.25 122.062 554.25 121.188C554.25 120.312 554.083 119.49 553.75 118.719C553.417 117.948 552.958 117.271 552.375 116.688C551.812 116.104 551.146 115.646 550.375 115.312C549.604 114.979 548.771 114.812 547.875 114.812H521.75C520 114.812 518.344 114.479 516.781 113.812C515.219 113.146 513.854 112.24 512.688 111.094C511.542 109.927 510.625 108.562 509.938 107C509.271 105.438 508.938 103.771 508.938 102C508.938 100.25 509.271 98.5938 509.938 97.0312C510.625 95.4688 511.542 94.1146 512.688 92.9688C513.854 91.8021 515.219 90.8854 516.781 90.2188C518.344 89.5312 520 89.1875 521.75 89.1875H557.469V95.5938H521.75C520.875 95.5938 520.042 95.7604 519.25 96.0938C518.479 96.4271 517.802 96.8854 517.219 97.4688C516.635 98.0521 516.177 98.7396 515.844 99.5312C515.51 100.302 515.344 101.125 515.344 102C515.344 102.875 515.51 103.708 515.844 104.5C516.177 105.271 516.635 105.948 517.219 106.531C517.802 107.115 518.479 107.573 519.25 107.906C520.042 108.24 520.875 108.406 521.75 108.406H547.875C549.646 108.406 551.302 108.75 552.844 109.438C554.406 110.104 555.76 111.021 556.906 112.188C558.073 113.333 558.99 114.688 559.656 116.25C560.323 117.792 560.656 119.438 560.656 121.188ZM606.469 123.625C606.469 125.062 606.125 126.417 605.438 127.688C604.771 128.938 603.854 130.031 602.688 130.969C601.542 131.906 600.188 132.646 598.625 133.188C597.062 133.729 595.406 134 593.656 134H566.125V127.594H593.656C594.531 127.594 595.354 127.5 596.125 127.312C596.917 127.104 597.604 126.823 598.188 126.469C598.771 126.094 599.229 125.667 599.562 125.188C599.896 124.708 600.062 124.188 600.062 123.625V122.031H578.875C577.125 122.031 575.469 121.698 573.906 121.031C572.365 120.344 571.01 119.427 569.844 118.281C568.698 117.115 567.792 115.76 567.125 114.219C566.458 112.656 566.125 110.99 566.125 109.219V98.8125H572.469V109.219C572.469 110.115 572.635 110.958 572.969 111.75C573.302 112.521 573.76 113.198 574.344 113.781C574.927 114.344 575.604 114.792 576.375 115.125C577.167 115.458 578 115.625 578.875 115.625H600.062V98.8125H606.469V123.625ZM653.938 123.625C653.938 125.062 653.667 126.417 653.125 127.688C652.583 128.938 651.844 130.031 650.906 130.969C649.99 131.906 648.896 132.646 647.625 133.188C646.375 133.729 645.031 134 643.594 134H613.688V127.594H643.594C644.156 127.594 644.677 127.5 645.156 127.312C645.656 127.104 646.083 126.823 646.438 126.469C646.812 126.094 647.104 125.667 647.312 125.188C647.521 124.708 647.625 124.188 647.625 123.625C647.625 123.062 647.521 122.542 647.312 122.062C647.104 121.562 646.812 121.135 646.438 120.781C646.083 120.406 645.656 120.115 645.156 119.906C644.677 119.698 644.156 119.594 643.594 119.594H624C622.583 119.594 621.25 119.323 620 118.781C618.75 118.24 617.656 117.5 616.719 116.562C615.781 115.604 615.042 114.49 614.5 113.219C613.958 111.948 613.688 110.594 613.688 109.156C613.688 107.76 613.958 106.438 614.5 105.188C615.042 103.917 615.781 102.812 616.719 101.875C617.656 100.938 618.75 100.198 620 99.6562C621.25 99.0938 622.583 98.8125 624 98.8125H651.594V105.125H624C623.458 105.125 622.938 105.24 622.438 105.469C621.958 105.677 621.542 105.969 621.188 106.344C620.833 106.698 620.552 107.125 620.344 107.625C620.135 108.104 620.031 108.615 620.031 109.156C620.031 109.719 620.135 110.25 620.344 110.75C620.552 111.229 620.833 111.656 621.188 112.031C621.542 112.385 621.958 112.667 622.438 112.875C622.938 113.083 623.458 113.188 624 113.188H643.594C645.031 113.188 646.375 113.469 647.625 114.031C648.896 114.573 649.99 115.323 650.906 116.281C651.844 117.219 652.583 118.323 653.125 119.594C653.667 120.865 653.938 122.208 653.938 123.625ZM680.062 134H673.656V105.125H656.719V98.8125H696.969V105.125H680.062V134ZM739.031 134H702.281V98.6875H739.031V105.125H708.75V127.531H739.031V134ZM734.938 119.406H711.781V112.938H734.938V119.406ZM771.969 134H765.562V116.281C765.562 114.74 765.271 113.292 764.688 111.938C764.104 110.583 763.302 109.406 762.281 108.406C761.281 107.385 760.094 106.583 758.719 106C757.365 105.417 755.917 105.125 754.375 105.125H752.562V134H746.156V98.8125H754.375C755.875 98.8125 757.323 99 758.719 99.375C760.115 99.7292 761.427 100.24 762.656 100.906C763.906 101.552 765.052 102.344 766.094 103.281C767.156 104.219 768.083 105.26 768.875 106.406C769.688 105.26 770.604 104.219 771.625 103.281C772.667 102.344 773.792 101.552 775 100.906C776.208 100.24 777.49 99.7292 778.844 99.375C780.198 99 781.615 98.8125 783.094 98.8125H791.281V134H784.875V105.125H783.094C781.552 105.125 780.104 105.438 778.75 106.062C777.417 106.688 776.24 107.542 775.219 108.625C774.219 109.708 773.427 110.979 772.844 112.438C772.26 113.896 771.969 115.448 771.969 117.094V134Z" fill="#21242C"/>
<defs>
<clipPath id="clip0_985_118">
<rect width="106.229" height="106.229" fill="white" transform="translate(58.3857 58.3857)"/>
</clipPath>
</defs>
</svg>
